<svg width="512" height="512" viewBox="0 0 512 512" fill="none" xmlns="http://www.w3.org/2000/svg">
  <defs>
    <linearGradient id="bgGrad" x1="0" y1="0" x2="512" y2="512" gradientUnits="userSpaceOnUse">
      <stop stop-color="#3b82f6"/>
      <stop offset="1" stop-color="#8b5cf6"/>
    </linearGradient>
    <linearGradient id="nasGrad" x1="128" y1="160" x2="384" y2="352" gradientUnits="userSpaceOnUse">
      <stop stop-color="#ffffff"/>
      <stop offset="1" stop-color="#e2e8f0"/>
    </linearGradient>
  </defs>
  
  <!-- Background -->
  <rect width="512" height="512" rx="102" fill="url(#bgGrad)"/>
  
  <!-- NAS Body -->
  <rect x="96" y="144" width="320" height="224" rx="24" fill="url(#nasGrad)"/>
  
  <!-- Top bay -->
  <rect x="128" y="176" width="256" height="72" rx="12" fill="#1e293b"/>
  <circle cx="160" cy="212" r="16" fill="#22c55e"/>
  <rect x="192" y="200" width="160" height="8" rx="4" fill="#3b82f6"/>
  <rect x="192" y="216" width="100" height="8" rx="4" fill="#3b82f6" fill-opacity="0.5"/>
  
  <!-- Bottom bay -->
  <rect x="128" y="264" width="256" height="72" rx="12" fill="#1e293b"/>
  <circle cx="160" cy="300" r="16" fill="#3b82f6"/>
  <rect x="192" y="288" width="160" height="8" rx="4" fill="#94a3b8"/>
  <rect x="192" y="304" width="80" height="8" rx="4" fill="#94a3b8" fill-opacity="0.5"/>
  
  <!-- Search magnifier overlay -->
  <circle cx="380" cy="380" r="56" stroke="white" stroke-width="16" fill="none" stroke-opacity="0.9"/>
  <line x1="420" y1="420" x2="460" y2="460" stroke="white" stroke-width="16" stroke-linecap="round" stroke-opacity="0.9"/>
</svg>
